<svg width="30" height="30" viewBox="0 0 30 30" fill="none" xmlns="http://www.w3.org/2000/svg">
<rect width="30" height="30" fill="#ACA197"/>
<path d="M25 12.8182C25 20.4545 15 27 15 27C15 27 5 20.4545 5 12.8182C5 10.2142 6.05357 7.71695 7.92893 5.87568C9.8043 4.03441 12.3478 3 15 3C17.6522 3 20.1957 4.03441 22.0711 5.87568C23.9464 7.71695 25 10.2142 25 12.8182Z" stroke="#1C1C1C" stroke-width="3" stroke-linecap="round" stroke-linejoin="round"/>
<path d="M15 16.5C17.0711 16.5 18.75 14.8211 18.75 12.75C18.75 10.6789 17.0711 9 15 9C12.9289 9 11.25 10.6789 11.25 12.75C11.25 14.8211 12.9289 16.5 15 16.5Z" stroke="#1C1C1C" stroke-width="2" stroke-linecap="round" stroke-linejoin="round"/>
</svg>
